<svg width="512" height="512" xmlns="http://www.w3.org/2000/svg">

 <g>
  <title>Layer 1</title>
  <g>
   <g>
    <title>Layer 1</title>
    <g>
     <g>
      <path class="st0" d="m407.8135,212.71898l-9.5,0l0,-70.406c0.016,-39.203 -15.984,-74.969 -41.688,-100.625c-25.656,-25.719 -61.422,-41.704 -100.625,-41.688c-39.203,-0.016 -74.969,15.969 -100.625,41.688c-25.703,25.656 -41.703,61.422 -41.672,100.625l0,70.406l-9.516,0c-34.453,0 -62.375,27.938 -62.375,62.375l0,174.531c0,34.438 27.922,62.375 62.375,62.375l303.625,0c34.453,0 62.375,-27.938 62.375,-62.375l0,-174.531c0.001,-34.438 -27.921,-62.375 -62.374,-62.375zm-232.5,-70.406c0.016,-22.391 8.984,-42.375 23.625,-57.063c14.703,-14.656 34.687,-23.625 57.062,-23.625s42.359,8.969 57.047,23.625c14.656,14.688 23.625,34.672 23.641,57.063l0,70.406l-161.375,0l0,-70.406zm98.718,239.359l9.828,63.703l-27.859,0l-27.859,0l9.813,-63.703c-15.5,-6.922 -26.328,-22.422 -26.328,-40.484c0,-24.5 19.859,-44.375 44.375,-44.375c24.5,0 44.375,19.875 44.375,44.375c-0.001,18.062 -10.845,33.562 -26.345,40.484z" fill="#60be60"/>
     </g>
    </g>
   </g>
  </g>
 </g>
</svg>