<svg width="512" height="512" xmlns="http://www.w3.org/2000/svg">

 <g>
  <title>Layer 1</title>
  <g>
   <g>
    <title>Layer 1</title>
    <g>
     <g>
      <path class="st0" d="m341.374,265.84549l168.152,146.591c1.599,-5.25 2.474,-10.818 2.474,-16.583l0,-278.766l-170.626,148.758z" fill="#60be60"/>
      <path class="st0" d="m256,283.10249c7.208,-0.015 14.31,-2.492 20.11,-7.538l223.481,-194.825c-10.424,-13.076 -26.458,-21.478 -44.481,-21.478l-398.22,0c-18.023,0 -34.057,8.401 -44.481,21.478l223.481,194.825c5.792,5.046 12.902,7.523 20.11,7.538z" fill="#60be60"/>
      <path class="st0" d="m0,117.08749l0,278.766c0,5.765 0.875,11.333 2.473,16.583l168.152,-146.599l-170.625,-148.75z" fill="#60be60"/>
      <path class="st0" d="m299.474,302.36749c-12.432,10.841 -28,16.303 -43.474,16.288c-15.474,0.015 -31.05,-5.454 -43.474,-16.288l-14.845,-12.939l-174.53,152.151c9.447,6.978 21.092,11.159 33.739,11.159l398.22,0c12.647,0 24.291,-4.181 33.738,-11.159l-174.53,-152.151l-14.844,12.939z" fill="#60be60"/>
     </g>
    </g>
   </g>
  </g>
 </g>
</svg>