<svg width="512" height="512" xmlns="http://www.w3.org/2000/svg">

 <g>
  <title>Layer 1</title>
  <g>
   <g>
    <title>Layer 1</title>
    <g>
     <g>
      <path class="st0" d="m360.189,0l-208.377,0c-32.852,0 -59.484,26.631 -59.484,59.484l0,357.344c0,52.566 42.607,95.172 95.172,95.172l137,0c52.566,0 95.172,-42.607 95.172,-95.172l0,-357.344c0,-32.853 -26.63,-59.484 -59.483,-59.484zm-104.189,481.229c-8.115,0 -14.688,-6.574 -14.688,-14.688s6.574,-14.689 14.688,-14.689c8.115,0 14.688,6.574 14.688,14.689s-6.573,14.688 -14.688,14.688zm-37.77,-458.845l75.532,0c4.255,0 7.697,3.452 7.697,7.697c0,4.246 -3.442,7.697 -7.697,7.697l-75.532,0c-4.254,0 -7.697,-3.45 -7.697,-7.697c0,-4.245 3.443,-7.697 7.697,-7.697zm-92.328,394.444l0,-345.484l260.197,0l0,345.483c0,3.844 -0.401,7.59 -1.074,11.238l-258.05,0c-0.671,-3.647 -1.073,-7.393 -1.073,-11.237z" fill="#60be60"/>
     </g>
    </g>
   </g>
  </g>
 </g>
</svg>