<svg width="512" height="512" xmlns="http://www.w3.org/2000/svg">

 <g>
  <title>Layer 1</title>
  <g>
   <g>
    <title>Layer 1</title>
    <g>
     <g>
      <path class="st0" d="m277.853,266.298c-6.726,-22.448 -10.492,-41.259 -10.412,-51.234c0,-19.649 0,-31.604 0,-39.028c17.8,-5.001 30.907,-21.202 30.922,-40.612c0,-23.394 -18.966,-42.345 -42.37,-42.345c-23.4,0 -42.351,18.951 -42.351,42.345c0.01,19.41 13.107,35.591 30.908,40.612c0,7.424 0,19.379 0,39.028c0.08,9.974 -3.687,28.785 -10.412,51.234c-20.052,67.623 -65.87,171.207 -102.178,225.539l19.04,12.693c13.68,-20.536 28.222,-46.959 42.266,-75.525l125.503,0c14.044,28.566 28.596,55.01 42.241,75.525l19.04,-12.694c-24.147,-36.188 -52.688,-94.347 -74.852,-149.078c-11.094,-27.359 -20.639,-53.932 -27.345,-76.46zm-41.324,-130.874c0.02,-10.74 8.713,-19.438 19.464,-19.459c10.776,0.02 19.459,8.718 19.479,19.459c-0.02,10.752 -8.713,19.47 -19.479,19.5c-10.736,-0.03 -19.445,-8.748 -19.464,-19.5zm19.464,137.639c6.317,21.102 14.99,45.215 24.844,70.115l-49.609,0c9.879,-24.9 18.478,-48.992 24.765,-70.115zm-51.807,133.055c6.123,-13.212 12.046,-26.623 17.7,-40.054l68.227,0c5.654,13.462 11.632,26.822 17.77,40.054l-103.697,0z" fill="#60be60"/>
      <path class="st0" d="m34.4,7.49l0,-0.02c-21.816,37.683 -34.4,81.384 -34.4,127.954c0,46.561 12.584,90.301 34.4,127.964l19.803,-11.448c-19.873,-34.345 -31.316,-74.09 -31.316,-116.516c0,-42.434 11.442,-82.131 31.316,-116.485l-19.803,-11.449z" fill="#60be60"/>
      <path class="st0" d="m92.812,41.197c-16.062,27.739 -25.358,59.942 -25.358,94.226c0,34.315 9.287,66.518 25.358,94.257l19.802,-11.487c-14.124,-24.382 -22.274,-52.609 -22.274,-82.77c0,-30.12 8.136,-58.357 22.274,-82.778l-19.802,-11.448z" fill="#60be60"/>
      <path class="st0" d="m477.605,7.47l-19.803,11.488c19.868,34.334 31.312,74.031 31.312,116.465c0,42.426 -11.444,82.172 -31.312,116.516l19.803,11.448c21.811,-37.662 34.395,-81.403 34.395,-127.963c0,-46.57 -12.584,-90.271 -34.395,-127.954z" fill="#60be60"/>
      <path class="st0" d="m399.411,52.665c14.114,24.432 22.248,52.639 22.248,82.758c0,30.161 -8.135,58.388 -22.264,82.77l19.803,11.487c16.072,-27.738 25.348,-59.942 25.348,-94.257c0,-34.284 -9.276,-66.488 -25.348,-94.247l-19.787,11.489z" fill="#60be60"/>
      <polygon class="st0" points="399.39501953125,52.665000915527344 399.4110107421875,52.665000915527344 399.39501953125,52.64599609375 " fill="#60be60"/>
      <path class="st0" d="m171.072,184.485c-8.404,-14.527 -13.251,-31.196 -13.251,-49.062c0,-17.834 4.847,-34.504 13.251,-49.031l-19.823,-11.448c-10.283,17.796 -16.316,38.45 -16.316,60.479c0,22.07 6.033,42.715 16.316,60.51l19.823,-11.448z" fill="#60be60"/>
      <path class="st0" d="m360.741,195.934c10.302,-17.795 16.34,-38.44 16.34,-60.51c0,-22.029 -6.038,-42.704 -16.34,-60.499l-19.803,11.488c8.404,14.528 13.257,31.177 13.257,49.011c0,17.865 -4.852,34.515 -13.257,49.062l19.803,11.448z" fill="#60be60"/>
     </g>
    </g>
   </g>
  </g>
 </g>
</svg>